<?xml version="1.0" ?><svg style="enable-background:new 0 0 48 48;" version="1.1" viewBox="0 0 48 48" xml:space="preserve" xmlns="http://www.w3.org/2000/svg" xmlns:xlink="http://www.w3.org/1999/xlink"><g id="Icons"><g><path d="M24.03279,6.85853c0,0-9.96179,0-11.36746,10.32843c0,0-0.73338,8.49503,0.42783,12.58976    c1.16121,4.09464,6.11151,11.24518,10.93963,11.36736c0,0,7.28176-0.2913,10.86857-10.65633    c0.18245-0.5272,0.29214-1.07777,0.34597-1.63309c0.20684-2.13198,0.63746-7.83335-0.09164-12.64555    C35.15569,16.20912,33.62784,6.67516,24.03279,6.85853z" style="fill:#F43735;"/><path d="M14.94575,11.33201c0,0,2.46,9.03713,8.78149,15.08335c0,0,7.15856-6.12231,8.26109-16.21666    c0,0,2.76199,1.16162,3.36114,7.56389c0.59915,6.40227-0.14368,11.42565-0.14368,11.42565s-1.19569,4.89474-3.3816,7.16525    l-8.01053-6.92834l-7.1186,6.92834c0,0-2.97814-3.17418-3.9156-8.05015s-0.13037-11.81624,0.28106-13.06218    S14.94575,11.33201,14.94575,11.33201z" style="fill:#464747;"/><path d="M14.98776,17.37033c0,0,1.58894,6.90598,7.57827,10.20625l-4.82812,4.44052    C17.73791,32.01709,12.66533,27.57658,14.98776,17.37033z" style="fill:#FFFFFF;"/><path d="M32.82573,17.37033c0,0-1.58895,6.90598-7.57827,10.20625l4.82812,4.44052    C30.07557,32.01709,35.14815,27.57658,32.82573,17.37033z" style="fill:#FFFFFF;"/><path d="    M24.03279,6.85853c0,0-9.96179,0-11.36746,10.32843c0,0-0.73338,8.49503,0.42783,12.58976    c1.16121,4.09464,6.11151,11.24518,10.93963,11.36736c0,0,7.28176-0.2913,10.86857-10.65633    c0.18245-0.5272,0.29214-1.07777,0.34597-1.63309c0.20684-2.13198,0.63746-7.83335-0.09164-12.64555    C35.15569,16.20912,33.62784,6.67516,24.03279,6.85853z" style="fill:none;stroke:#303030;stroke-width:0.75;stroke-linecap:round;stroke-linejoin:round;stroke-miterlimit:10;"/><path d="    M14.98776,17.37033c0,0,1.58894,6.90598,7.57827,10.20625l-4.82812,4.44052    C17.73791,32.01709,12.66533,27.57658,14.98776,17.37033z" style="fill:none;stroke:#303030;stroke-width:0.75;stroke-linecap:round;stroke-linejoin:round;stroke-miterlimit:10;"/><path d="    M32.82573,17.37033c0,0-1.58895,6.90598-7.57827,10.20625l4.82812,4.44052C30.07557,32.01709,35.14815,27.57658,32.82573,17.37033    z" style="fill:none;stroke:#303030;stroke-width:0.75;stroke-linecap:round;stroke-linejoin:round;stroke-miterlimit:10;"/><path d="    M14.94575,11.33201c0,0,3.69503,10.64227,8.78149,15.08335c0,0,7.04931-5.15397,8.26109-16.4501" style="fill:none;stroke:#303030;stroke-width:0.75;stroke-linecap:round;stroke-linejoin:round;stroke-miterlimit:10;"/><polyline points="    19.97176,7.68354 23.72723,26.41537 27.68097,7.32519   " style="fill:none;stroke:#303030;stroke-width:0.75;stroke-linecap:round;stroke-linejoin:round;stroke-miterlimit:10;"/><polyline points="    30.67494,15.98058 26.27866,13.8609 20.91589,13.70342 16.95237,16.20027   " style="fill:none;stroke:#303030;stroke-width:0.75;stroke-linecap:round;stroke-linejoin:round;stroke-miterlimit:10;"/><polyline points="    28.22177,20.82705 25.19363,19.16583 22.27379,19.16583 19.48982,21.03742   " style="fill:none;stroke:#303030;stroke-width:0.75;stroke-linecap:round;stroke-linejoin:round;stroke-miterlimit:10;"/><polyline points="    16.69506,36.3535 23.81366,29.42516 31.73743,36.11258   " style="fill:none;stroke:#303030;stroke-width:0.75;stroke-linecap:round;stroke-linejoin:round;stroke-miterlimit:10;"/><polyline points="    20.58128,39.97552 23.81366,29.42516 27.45747,39.97552   " style="fill:none;stroke:#303030;stroke-width:0.75;stroke-linecap:round;stroke-linejoin:round;stroke-miterlimit:10;"/><polyline points="    29.70352,34.39605 26.59743,37.48547 21.34418,37.48547 18.39362,34.70039   " style="fill:none;stroke:#303030;stroke-width:0.75;stroke-linecap:round;stroke-linejoin:round;stroke-miterlimit:10;"/><polyline points="    27.35922,32.41755 25.24745,33.93972 22.43053,33.93972 20.45156,32.6974   " style="fill:none;stroke:#303030;stroke-width:0.75;stroke-linecap:round;stroke-linejoin:round;stroke-miterlimit:10;"/></g></g></svg>